<svg id="Raster" xmlns="http://www.w3.org/2000/svg" width="157.34mm" height="199.67mm" viewBox="0 0 446 566">
  <defs>
    <style>
      .cls-1, .cls-2 {
        fill: none;
      }

      .cls-1 {
        stroke: red;
        stroke-miterlimit: 10;
      }

      .cls-2 {
        stroke: blue;
        stroke-width: 6.5px;
      }

      .cls-3, .cls-4 {
        fill: blue;
      }

      .cls-4 {
        font-size: 27px;
        font-family: Square721BT-BoldCondensed, Square721 Cn BT;
        font-weight: 700;
      }
    </style>
  </defs>
  <title>sm-empire</title>
  <g>
    <g id="Box">
      <path class="cls-1" d="M478.12,591V53a27.08,27.08,0,0,0-27-27h-391a27.08,27.08,0,0,0-27,27V591" transform="translate(-32.62 -25.5)"/>
    </g>
    <line id="Box-2" data-name="Box" class="cls-1" x1="0.5" y1="565.5" x2="445.5" y2="565.5"/>
  </g>
  <g>
    <g id="layer3">
      <path id="path7988" class="cls-2" d="M139.73,328l-42.8,21.91m311.25,2.89-37-23.46m-231-133.72L96.37,172.87M254.79,78l.83,50.42m-.83,268.79.83,42.95m181.5-177.73c0,100-81.26,181.08-181.5,181.08S74.12,362.43,74.12,262.42,155.38,81.33,255.62,81.33s181.5,81.08,181.5,181.09h0m-23.88-92.5L378,190.16" transform="translate(-32.62 -25.5)"/>
    </g>
    <g id="layer4">
      <path id="path7947" class="cls-3" d="M254.81,102.28l-38.5,5,3.34,13a144,144,0,0,0-65.86,38.2l-9.86-10L120.05,179l-16.17,37.08,13.27,5.71a146.52,146.52,0,0,0-.22,78.1l-13.27,3.71,15,35.75,24.62,32.18,10.24-7.93A143.93,143.93,0,0,0,219.28,402l-3,11.42,38.5,5,40.12-5-1.56-11.64a144,144,0,0,0,64.16-37.23l9.71,7.64,24.85-32,15.27-35.67-12.53-3.64a146.28,146.28,0,0,0,.22-78.61L407.59,217l-15.95-37.23-23.73-30.63-9.49,9.42a144,144,0,0,0-65.2-38l1.71-13.27Zm-15.06,44.27,31.74.89-6.82,57.48a56.25,56.25,0,0,1,34.71,19.88l46.28-36.05,15.13,27.89-52.73,22.62a57.78,57.78,0,0,1,.74,42.2l54,22.62-15,28-47.17-36.27a56.18,56.18,0,0,1-36.12,21.51l7,58.37-31.74.89,8.31-59.19A56.39,56.39,0,0,1,210.75,295l-47.84,35.68-16.53-27.15L203,280.79a57.8,57.8,0,0,1,.37-40.12l-55.7-21.95L164.1,191.5l47.39,34.86A56.28,56.28,0,0,1,248,204.85Z" transform="translate(-32.62 -25.5)"/>
    </g>
  </g>
  <text class="cls-4" transform="translate(32.64 453.63)">“I find your lack of faith disturbing.”</text>
</svg>
