<svg id="Raster" xmlns="http://www.w3.org/2000/svg" width="157.34mm" height="199.67mm" viewBox="0 0 446 566">
  <defs>
    <style>
      .cls-1 {
        fill: blue;
      }

      .cls-2 {
        fill: none;
        stroke: red;
        stroke-miterlimit: 10;
      }
    </style>
  </defs>
  <title>ths-sm-sign</title>
  <g>
    <path class="cls-1" d="M115.66,343.57V285q0-13.86-3.38-19.23t-11.54-5.37q-10.3,0-14.7,7t-4.4,24.43v51.69H69.83V209.37H81.64v51.25a23.28,23.28,0,0,1,9-8.31,28.25,28.25,0,0,1,12.7-2.62q12.89,0,18.52,7.42t5.64,24.64v61.82Z" transform="translate(-35.58 -30.5)"/>
    <g>
      <path class="cls-1" d="M217.84,197.64V63.43H244V142l14-37.48h25.14l-14.92,39.88,19.8,53.29H260.21L244,148.7v48.94Z" transform="translate(-35.58 -30.5)"/>
      <path class="cls-1" d="M298.87,197.64,286.7,104.47h26.91L322,184.14l9.15-79.67H357l-12.87,86.59q-3.74,25-10.17,32.87t-20,7.9a44.4,44.4,0,0,1-6.84-.57,73.15,73.15,0,0,1-8.08-1.83V210.52a32.68,32.68,0,0,0,4,.88,21.09,21.09,0,0,0,3.11.27q5.87,0,9-3.46t3.68-10.57Z" transform="translate(-35.58 -30.5)"/>
      <path class="cls-1" d="M359.65,139.64q0-21.49,7.28-29.13t28-7.64q20.61,0,27.93,7.64t7.33,29.13v23.09q0,21.32-7.28,28.91t-28,7.6q-20.7,0-28-7.55t-7.28-29Zm27.62-6.75v36.59q0,5.51,1.51,7.37t6.13,1.87q4.44,0,5.95-1.87t1.51-7.37V132.89q0-5.59-1.47-7.46c-1-1.24-3-1.87-6-1.87s-5.05.64-6.08,1.91S387.27,129.22,387.27,132.89Z" transform="translate(-35.58 -30.5)"/>
    </g>
    <path class="cls-1" d="M209.34,167.89l0-33.35c2-34.55-28.66-32.23-28.66-32.23l-12.74.19c-32.13-1.15-29.23,31.07-29.23,31.07l0,33.35C137,196.22,158.8,199,165.47,199.17L161,241.59s-.87,5.21.44,6.8c0,0,1.15,2.6,11.58,3.33h.63c10.42-.73,11.58-3.33,11.58-3.33,1.3-1.59.43-6.8.43-6.8L181.22,199c30.95.38,28.12-31.09,28.12-31.09m-42.81-36.43c0-8,4.46-8.15,4.46-8.15h6.14c4.89.34,4.55,7.34,4.51,7.89l0,39.86c0,8-4.46,7.57-4.46,7.57h-6.14c-5.1.22-4.53-7.65-4.53-7.65Z" transform="translate(-35.58 -30.5)"/>
    <path class="cls-1" d="M93.62,124.9H85.45V104.47h8.17V79.78h27.09v24.69H136V124.9H120.71v43.43q0,5.32,2.45,7.77c1.62,1.63,4.22,2.44,7.77,2.44.89,0,1.57,0,2,0s.92-.08,1.33-.14l.09,20q-4.17.61-7.77,1c-2.4.23-4.6.35-6.62.35q-15.27,0-20.82-5.64t-5.56-23Z" transform="translate(-35.58 -30.5)"/>
    <path class="cls-1" d="M148.64,252a127,127,0,0,0,50.75,0q-1.63,10.23-3.28,20.45a128.08,128.08,0,0,0-44.19,0q-1.63-10.23-3.28-20.45" transform="translate(-35.58 -30.5)"/>
    <g>
      <path class="cls-1" d="M160.22,452.26v12.35q0,10.65-6,15.85t-18.35,5.2H125.49q-12.78,0-17.67-4.62t-4.89-17v-9.5h11.64v5.68q0,9.24,2.49,11.91t9.5,2.66h8.17q7.28,0,10.21-2.62t2.94-9.1v-8.71q0-9.76-16.08-12.34-2.76-.45-4.26-.72-16.08-2.74-19.81-6.21T104,423.66V411.31q0-10.74,6-15.94t18.38-5.19h8.18q12.78,0,17.67,4.61t4.88,17.06v3.82H147.52v-2.58q0-6.75-2.66-9.37c-1.78-1.74-4.89-2.62-9.33-2.62h-6q-7.29,0-10.17,2.53c-1.92,1.69-2.89,4.66-2.89,8.93v8.88q0,7.29,18.21,9.95c3.32.47,6,.86,7.91,1.15q9.49,1.51,13.59,6T160.22,452.26Z" transform="translate(-35.58 -30.5)"/>
      <path class="cls-1" d="M227.67,446.4q0,21.23-5.86,30.24t-19.19,9a27.28,27.28,0,0,1-12.74-2.89A24.14,24.14,0,0,1,180.6,474v44.23H168.78V391.86h11.11v10.93a29.08,29.08,0,0,1,10-9.59,26.91,26.91,0,0,1,13.1-3q13.32,0,19,9.46t5.68,32.55ZM180.6,430.59v14.74q0,16.69,4.17,22.87t14.57,6.18q8.7,0,12.25-6.22t3.56-22.29V430.06q0-16.17-3.56-22.39t-12.25-6.21q-10.4,0-14.57,6.17T180.6,430.59Z" transform="translate(-35.58 -30.5)"/>
      <path class="cls-1" d="M279.22,484.06v-8.35a18.17,18.17,0,0,1-8.26,7.77q-5.15,2.36-13.94,2.35-11.55,0-17.24-5.77t-5.68-17.68V450q0-11.64,6.22-17.63t18.21-6a34.6,34.6,0,0,1,12.47,2,18.85,18.85,0,0,1,8.22,6V420q0-11.82-3.15-15.46c-2.11-2.42-6.32-3.64-12.66-3.64q-7.82,0-11.1,2.71T249,412.56v4.35H236.85v-4.17q0-11.91,6.49-17.41t20.6-5.51q15.29,0,21.1,5.82t5.82,21.27v67.15ZM261.55,475q9.85,0,13.94-4.4t4.09-15.32c0-7-1.15-11.69-3.42-14.12s-6.65-3.64-13.1-3.64-11,1.31-13.24,4-3.37,7.92-3.37,15.85q0,9.6,3.5,13.64T261.55,475Z" transform="translate(-35.58 -30.5)"/>
      <path class="cls-1" d="M359.1,450v3.82q0,16.78-6.84,24.29t-22.11,7.51q-16.87,0-23.63-8.13t-6.75-28.73V427q0-20.52,6.75-28.65t23.81-8.12q14.3,0,20.51,6.35t6.22,20.91v4.62H345.25v-1.69q0-10-3.64-14.21T329.08,402q-9.85,0-13.28,4.53T312.39,427v22q0,15.81,3.55,20.43T329.62,474q9.94,0,13.63-4.13t3.69-16.21V450Z" transform="translate(-35.58 -30.5)"/>
      <path class="cls-1" d="M376.19,440.18V449q0,16.08,3.56,20.48T394,473.84q11.19,0,15.23-3.28t4-12.17v-2.93h10.92v3.11q0,14.39-7.06,20.73T394,485.66q-16.8,0-23.58-8.18t-6.8-28.68V427q0-20.52,6.75-28.65t23.8-8.12q16.88,0,23.54,8.08T424.33,427v13.23Zm0-11.46h36.33V423q0-12.79-3.86-17.32t-14.35-4.53q-10.4,0-14.25,4.57T376.19,423Z" transform="translate(-35.58 -30.5)"/>
    </g>
    <g>
      <path class="cls-1" d="M271.56,310.25v3.82q0,16.79-6.84,24.29t-22.11,7.51q-16.89,0-23.63-8.13T212.23,309V287.16q0-20.52,6.75-28.65t23.8-8.12q14.31,0,20.52,6.35t6.22,20.91v4.62H257.71v-1.69q0-10-3.65-14.21t-12.52-4.17q-9.85,0-13.28,4.53t-3.42,20.43v22q0,15.81,3.56,20.43t13.67,4.62q9.94,0,13.64-4.13t3.68-16.21v-3.64Z" transform="translate(-35.58 -30.5)"/>
      <path class="cls-1" d="M280.81,344.27V210.06h11.81v78.16h5.6l23.71-36.15h12.88l-27.27,41.48,32.69,50.72h-14l-28.06-43.88h-5.6v43.88Z" transform="translate(-35.58 -30.5)"/>
      <path class="cls-1" d="M350.9,300.39v8.79q0,16.08,3.55,20.48t14.21,4.39q11.19,0,15.23-3.28t4-12.17v-2.93h10.93v3.11q0,14.39-7.06,20.73t-23.14,6.36q-16.79,0-23.58-8.18T338.29,309V287.16q0-20.52,6.75-28.65t23.8-8.12q16.88,0,23.54,8.08T399,287.16v13.23Zm0-11.46h36.32v-5.77q0-12.8-3.86-17.32T369,261.31q-10.39,0-14.26,4.57t-3.86,17.28Z" transform="translate(-35.58 -30.5)"/>
      <path class="cls-1" d="M421.07,344.27H409.26v-92.2h10.93v12a23.58,23.58,0,0,1,8.57-10.34,23.93,23.93,0,0,1,13-3.33q10.13,0,14.61,5.9t4.49,19.23v7.11H449.94v-4.36q0-9.67-2.66-13.67t-9-4q-9.33,0-13.28,5.64t-4,19.85Z" transform="translate(-35.58 -30.5)"/>
    </g>
    <path class="cls-1" d="M202.22,337.35c-13.79-34.74-13.41-62-13.41-62-3.25-1-14.95-1.57-15.46-1.59s-12.2.6-15.46,1.59c0,0,.39,27.3-13.41,62,0,0-15.34,38.59-18.62,41.2l16.11-.1s1.74-31.07,30.88-31.26h1c29.14.19,30.87,31.26,30.87,31.26l16.12.1c-3.28-2.61-18.63-41.2-18.63-41.2M173.35,341a15.34,15.34,0,1,1,15.34-15.34A15.34,15.34,0,0,1,173.35,341" transform="translate(-35.58 -30.5)"/>
  </g>
  <g>
    <path class="cls-1" d="M192.66,500.84l1.53,5.91c.34,1.29.65,2.49.87,3.69h.07c.27-1.17.65-2.42,1-3.67l1.9-5.93h1.78l1.8,5.81c.43,1.39.76,2.62,1,3.79h.07a33.59,33.59,0,0,1,.89-3.77l1.65-5.83h2.09l-3.74,11.62h-1.92l-1.78-5.55a38,38,0,0,1-1-3.81h-.05a34.61,34.61,0,0,1-1.06,3.84l-1.87,5.52H194l-3.5-11.62Z" transform="translate(-35.58 -30.5)"/>
    <path class="cls-1" d="M210.61,500.84l1.54,5.91c.33,1.29.64,2.49.86,3.69h.07c.27-1.17.65-2.42,1-3.67l1.9-5.93h1.78l1.8,5.81c.43,1.39.76,2.62,1,3.79h.07a35.94,35.94,0,0,1,.89-3.77l1.66-5.83h2.08l-3.74,11.62h-1.92l-1.78-5.55c-.4-1.29-.74-2.44-1-3.81h0a37,37,0,0,1-1.05,3.84l-1.88,5.52H212l-3.5-11.62Z" transform="translate(-35.58 -30.5)"/>
    <path class="cls-1" d="M228.56,500.84l1.54,5.91c.33,1.29.65,2.49.86,3.69H231c.27-1.17.65-2.42,1-3.67l1.89-5.93h1.78l1.8,5.81c.43,1.39.77,2.62,1,3.79h.07a35.94,35.94,0,0,1,.89-3.77l1.66-5.83h2.09l-3.75,11.62h-1.92l-1.78-5.55c-.4-1.29-.74-2.44-1-3.81h-.05a32.56,32.56,0,0,1-1.05,3.84l-1.87,5.52h-1.92l-3.51-11.62Z" transform="translate(-35.58 -30.5)"/>
    <path class="cls-1" d="M244,511.21a1.42,1.42,0,0,1,1.44-1.51,1.51,1.51,0,1,1-1.44,1.51Z" transform="translate(-35.58 -30.5)"/>
    <path class="cls-1" d="M252,497.51v3.33h3v1.61h-3v6.26c0,1.45.41,2.26,1.59,2.26a4.78,4.78,0,0,0,1.22-.14l.1,1.58a5.16,5.16,0,0,1-1.88.29,2.93,2.93,0,0,1-2.28-.89,4.28,4.28,0,0,1-.81-3v-6.34h-1.8v-1.61h1.8v-2.78Z" transform="translate(-35.58 -30.5)"/>
    <path class="cls-1" d="M267.73,506.55c0,4.3-3,6.17-5.78,6.17-3.15,0-5.57-2.3-5.57-6,0-3.89,2.54-6.17,5.76-6.17S267.73,503,267.73,506.55Zm-9.22.12c0,2.55,1.47,4.47,3.53,4.47s3.53-1.9,3.53-4.51c0-2-1-4.47-3.48-4.47S258.51,504.47,258.51,506.67Z" transform="translate(-35.58 -30.5)"/>
    <path class="cls-1" d="M272.48,506.17h0c.29-.41.7-.91,1-1.32l3.41-4h2.54L275,505.62l5.11,6.84h-2.57l-4-5.57-1.08,1.2v4.37h-2.09v-17h2.09Z" transform="translate(-35.58 -30.5)"/>
    <path class="cls-1" d="M282.73,500.84l2.54,6.87c.27.76.56,1.68.75,2.37h.05c.21-.69.45-1.58.74-2.42l2.3-6.82h2.24l-3.17,8.28c-1.51,4-2.55,6-4,7.28a5.62,5.62,0,0,1-2.59,1.36l-.53-1.77a5.71,5.71,0,0,0,1.85-1,6.44,6.44,0,0,0,1.78-2.36,1.62,1.62,0,0,0,.17-.5,1.75,1.75,0,0,0-.15-.55l-4.3-10.71Z" transform="translate(-35.58 -30.5)"/>
    <path class="cls-1" d="M303.54,506.55c0,4.3-3,6.17-5.79,6.17-3.14,0-5.57-2.3-5.57-6,0-3.89,2.55-6.17,5.77-6.17S303.54,503,303.54,506.55Zm-9.22.12c0,2.55,1.47,4.47,3.53,4.47s3.53-1.9,3.53-4.51c0-2-1-4.47-3.48-4.47S294.32,504.47,294.32,506.67Z" transform="translate(-35.58 -30.5)"/>
    <path class="cls-1" d="M306.2,495.42h2.11v7.25h.05a4,4,0,0,1,1.51-1.49,4.37,4.37,0,0,1,2.16-.6c1.56,0,4.06,1,4.06,5v6.91H314v-6.67c0-1.88-.7-3.46-2.69-3.46a3,3,0,0,0-2.83,2.11,2.56,2.56,0,0,0-.15,1v7H306.2Z" transform="translate(-35.58 -30.5)"/>
    <path class="cls-1" d="M326,512.46l-.16-1.46h-.08a4.31,4.31,0,0,1-3.55,1.72,3.3,3.3,0,0,1-3.55-3.33c0-2.81,2.49-4.35,7-4.32v-.24a2.39,2.39,0,0,0-2.64-2.69,5.76,5.76,0,0,0-3,.86l-.48-1.39a7.23,7.23,0,0,1,3.81-1c3.56,0,4.42,2.42,4.42,4.75v4.34a16.83,16.83,0,0,0,.19,2.79Zm-.31-5.93c-2.3,0-4.92.36-4.92,2.62a1.87,1.87,0,0,0,2,2,2.88,2.88,0,0,0,2.81-1.94,2.31,2.31,0,0,0,.12-.67Z" transform="translate(-35.58 -30.5)"/>
    <path class="cls-1" d="M339.37,512a7.77,7.77,0,0,1-3.34.67c-3.5,0-5.78-2.38-5.78-5.93a5.9,5.9,0,0,1,6.24-6.17,7,7,0,0,1,2.93.6l-.48,1.63a5,5,0,0,0-2.45-.55c-2.67,0-4.11,2-4.11,4.39,0,2.69,1.73,4.35,4,4.35a5.9,5.9,0,0,0,2.59-.58Z" transform="translate(-35.58 -30.5)"/>
    <path class="cls-1" d="M343.93,506.17H344c.28-.41.69-.91,1-1.32l3.41-4H351l-4.49,4.78,5.11,6.84H349l-4-5.57-1.08,1.2v4.37h-2.09v-17h2.09Z" transform="translate(-35.58 -30.5)"/>
    <path class="cls-1" d="M354.27,507a3.73,3.73,0,0,0,4,4,7.7,7.7,0,0,0,3.21-.6l.36,1.51a9.3,9.3,0,0,1-3.86.72c-3.58,0-5.71-2.35-5.71-5.86s2.06-6.26,5.44-6.26c3.8,0,4.8,3.33,4.8,5.47a6.87,6.87,0,0,1-.07,1Zm6.19-1.51c0-1.34-.55-3.43-2.92-3.43-2.14,0-3.08,2-3.24,3.43Z" transform="translate(-35.58 -30.5)"/>
    <path class="cls-1" d="M365.12,504.47c0-1.37,0-2.55-.1-3.63h1.85l.07,2.28h.1a3.48,3.48,0,0,1,3.22-2.54,2.2,2.2,0,0,1,.6.07v2a3.14,3.14,0,0,0-.72-.07,3,3,0,0,0-2.84,2.71,7.12,7.12,0,0,0-.09,1v6.19h-2.09Z" transform="translate(-35.58 -30.5)"/>
    <path class="cls-1" d="M372.68,510.3a5.51,5.51,0,0,0,2.78.84c1.54,0,2.26-.77,2.26-1.73s-.6-1.56-2.16-2.14c-2.09-.74-3.07-1.89-3.07-3.28,0-1.88,1.51-3.41,4-3.41a5.73,5.73,0,0,1,2.85.72l-.53,1.53a4.55,4.55,0,0,0-2.37-.67c-1.25,0-1.95.72-1.95,1.59s.7,1.39,2.21,2c2,.77,3.05,1.78,3.05,3.51,0,2-1.58,3.48-4.34,3.48a6.64,6.64,0,0,1-3.27-.79Z" transform="translate(-35.58 -30.5)"/>
    <path class="cls-1" d="M382.47,504.63c0-1.48-.05-2.68-.09-3.79h1.89l.1,2h.05a4.56,4.56,0,0,1,4.12-2.25c2.81,0,4.92,2.37,4.92,5.9,0,4.18-2.54,6.24-5.28,6.24a4.06,4.06,0,0,1-3.57-1.82h-.05v6.31h-2.09Zm2.09,3.1a4.51,4.51,0,0,0,.1.86,3.25,3.25,0,0,0,3.16,2.48c2.24,0,3.53-1.83,3.53-4.49,0-2.33-1.22-4.32-3.45-4.32a3.38,3.38,0,0,0-3.2,2.61,3.59,3.59,0,0,0-.14.87Z" transform="translate(-35.58 -30.5)"/>
    <path class="cls-1" d="M402.56,512.46l-.17-1.46h-.07a4.33,4.33,0,0,1-3.55,1.72,3.31,3.31,0,0,1-3.56-3.33c0-2.81,2.5-4.35,7-4.32v-.24a2.39,2.39,0,0,0-2.64-2.69,5.74,5.74,0,0,0-3,.86l-.49-1.39a7.3,7.3,0,0,1,3.82-1c3.55,0,4.42,2.42,4.42,4.75v4.34a16.83,16.83,0,0,0,.19,2.79Zm-.31-5.93c-2.31,0-4.92.36-4.92,2.62a1.87,1.87,0,0,0,2,2,2.9,2.9,0,0,0,2.81-1.94,2.31,2.31,0,0,0,.12-.67Z" transform="translate(-35.58 -30.5)"/>
    <path class="cls-1" d="M416,512a7.81,7.81,0,0,1-3.34.67c-3.5,0-5.78-2.38-5.78-5.93a5.9,5.9,0,0,1,6.24-6.17,7,7,0,0,1,2.92.6l-.48,1.63a5,5,0,0,0-2.44-.55c-2.67,0-4.11,2-4.11,4.39,0,2.69,1.73,4.35,4,4.35a6,6,0,0,0,2.6-.58Z" transform="translate(-35.58 -30.5)"/>
    <path class="cls-1" d="M419.48,507a3.72,3.72,0,0,0,4,4,7.72,7.72,0,0,0,3.22-.6L427,512a9.33,9.33,0,0,1-3.86.72c-3.58,0-5.72-2.35-5.72-5.86s2.07-6.26,5.45-6.26c3.8,0,4.8,3.33,4.8,5.47a6.87,6.87,0,0,1-.07,1Zm6.19-1.51c0-1.34-.55-3.43-2.93-3.43-2.13,0-3.07,2-3.24,3.43Z" transform="translate(-35.58 -30.5)"/>
    <path class="cls-1" d="M429.54,511.21A1.42,1.42,0,0,1,431,509.7a1.51,1.51,0,1,1-1.44,1.51Z" transform="translate(-35.58 -30.5)"/>
    <path class="cls-1" d="M432.17,515.82a3.45,3.45,0,0,0,2.31-.89c.57-.67.79-1.58.79-4.37v-9.72h2.11v10.54c0,2.25-.36,3.72-1.39,4.78a5.39,5.39,0,0,1-3.6,1.32Zm5.45-18.24a1.24,1.24,0,0,1-1.32,1.29,1.26,1.26,0,0,1-1.29-1.29,1.29,1.29,0,0,1,1.34-1.32A1.24,1.24,0,0,1,437.62,497.58Z" transform="translate(-35.58 -30.5)"/>
    <path class="cls-1" d="M440.84,504.63c0-1.48,0-2.68-.1-3.79h1.9l.1,2h0a4.59,4.59,0,0,1,4.13-2.25c2.81,0,4.92,2.37,4.92,5.9,0,4.18-2.54,6.24-5.28,6.24A4.06,4.06,0,0,1,443,510.9h-.05v6.31h-2.09Zm2.09,3.1a5.54,5.54,0,0,0,.09.86,3.27,3.27,0,0,0,3.17,2.48c2.23,0,3.53-1.83,3.53-4.49,0-2.33-1.22-4.32-3.46-4.32a3.37,3.37,0,0,0-3.19,2.61,3.59,3.59,0,0,0-.14.87Z" transform="translate(-35.58 -30.5)"/>
  </g>
  <g>
    <g id="Box">
      <path class="cls-2" d="M481.08,596V58a27.08,27.08,0,0,0-27-27h-391a27.08,27.08,0,0,0-27,27V596" transform="translate(-35.58 -30.5)"/>
    </g>
    <line id="Box-2" data-name="Box" class="cls-2" x1="0.5" y1="565.5" x2="445.5" y2="565.5"/>
  </g>
</svg>
