<svg xmlns="http://www.w3.org/2000/svg" width="157.34mm" height="199.67mm" viewBox="0 0 446 566">
  <defs>
    <style>
      .cls-1, .cls-3 {
        fill: blue;
      }

      .cls-2 {
        fill: none;
        stroke: red;
        stroke-miterlimit: 10;
      }

      .cls-3 {
        font-size: 48px;
        font-family: Square721BT-RomanCondensed, Square721 Cn BT;
      }
    </style>
  </defs>
  <title>ths-sm-clock</title>
  <g id="Raster">
    <g>
      <path class="cls-1" d="M126.93,494.19l1.53,5.9c.34,1.3.65,2.5.87,3.7h.07c.26-1.18.65-2.42,1-3.67l1.9-5.93h1.77l1.8,5.81c.44,1.39.77,2.61,1,3.79H137a33.09,33.09,0,0,1,.89-3.77l1.65-5.83h2.09l-3.74,11.62H136l-1.78-5.55a38.74,38.74,0,0,1-1-3.81h0a34.61,34.61,0,0,1-1.06,3.84l-1.87,5.52h-1.92l-3.5-11.62Z" transform="translate(-32.58 -28.5)"/>
      <path class="cls-1" d="M144.88,494.19l1.54,5.9c.33,1.3.64,2.5.86,3.7h.07c.27-1.18.65-2.42,1-3.67l1.9-5.93h1.78l1.8,5.81c.43,1.39.76,2.61,1,3.79H155a33.09,33.09,0,0,1,.89-3.77l1.65-5.83h2.09l-3.74,11.62h-1.92l-1.78-5.55a38.74,38.74,0,0,1-1-3.81h-.05a37,37,0,0,1-1,3.84l-1.88,5.52h-1.92l-3.5-11.62Z" transform="translate(-32.58 -28.5)"/>
      <path class="cls-1" d="M162.83,494.19l1.54,5.9c.33,1.3.65,2.5.86,3.7h.07c.27-1.18.65-2.42,1-3.67l1.89-5.93H170l1.8,5.81c.43,1.39.77,2.61,1,3.79h.07a35.36,35.36,0,0,1,.89-3.77l1.66-5.83h2.08l-3.74,11.62h-1.92l-1.78-5.55c-.4-1.29-.74-2.45-1-3.81h0a32.56,32.56,0,0,1-1.05,3.84l-1.87,5.52h-1.92l-3.51-11.62Z" transform="translate(-32.58 -28.5)"/>
      <path class="cls-1" d="M178.21,504.56a1.42,1.42,0,0,1,1.44-1.51,1.51,1.51,0,0,1,0,3A1.42,1.42,0,0,1,178.21,504.56Z" transform="translate(-32.58 -28.5)"/>
      <path class="cls-1" d="M186.23,490.85v3.34h3v1.61h-3v6.26c0,1.44.41,2.26,1.58,2.26a4.37,4.37,0,0,0,1.23-.15l.1,1.59a5.16,5.16,0,0,1-1.88.29,3,3,0,0,1-2.28-.89,4.33,4.33,0,0,1-.81-3V495.8h-1.8v-1.61h1.8v-2.78Z" transform="translate(-32.58 -28.5)"/>
      <path class="cls-1" d="M202,499.9c0,4.3-3,6.17-5.78,6.17-3.15,0-5.57-2.3-5.57-6,0-3.88,2.54-6.16,5.76-6.16S202,496.35,202,499.9Zm-9.22.12c0,2.55,1.47,4.47,3.53,4.47s3.53-1.9,3.53-4.52c0-2-1-4.46-3.48-4.46S192.78,497.81,192.78,500Z" transform="translate(-32.58 -28.5)"/>
      <path class="cls-1" d="M206.75,499.52h.05c.29-.41.69-.91,1-1.32l3.41-4h2.54L209.3,499l5.11,6.84h-2.57l-4-5.57-1.08,1.2v4.37h-2.09v-17h2.09Z" transform="translate(-32.58 -28.5)"/>
      <path class="cls-1" d="M217,494.19l2.54,6.86c.27.77.55,1.68.75,2.38h0c.22-.7.46-1.58.75-2.42l2.3-6.82h2.23l-3.16,8.28c-1.51,4-2.55,6-4,7.27a5.67,5.67,0,0,1-2.59,1.37l-.53-1.78a5.36,5.36,0,0,0,1.85-1A6.31,6.31,0,0,0,219,506a1.62,1.62,0,0,0,.16-.5,1.76,1.76,0,0,0-.14-.56l-4.3-10.7Z" transform="translate(-32.58 -28.5)"/>
      <path class="cls-1" d="M237.81,499.9c0,4.3-3,6.17-5.79,6.17-3.14,0-5.57-2.3-5.57-6,0-3.88,2.55-6.16,5.76-6.16S237.81,496.35,237.81,499.9Zm-9.22.12c0,2.55,1.46,4.47,3.53,4.47s3.53-1.9,3.53-4.52c0-2-1-4.46-3.48-4.46S228.59,497.81,228.59,500Z" transform="translate(-32.58 -28.5)"/>
      <path class="cls-1" d="M240.47,488.77h2.11V496h0a3.91,3.91,0,0,1,1.51-1.48,4.37,4.37,0,0,1,2.16-.6c1.56,0,4.06,1,4.06,5v6.92h-2.11v-6.68c0-1.87-.7-3.45-2.69-3.45a3,3,0,0,0-2.83,2.11,2.56,2.56,0,0,0-.15,1v7h-2.11Z" transform="translate(-32.58 -28.5)"/>
      <path class="cls-1" d="M260.22,505.81l-.17-1.47H260a4.33,4.33,0,0,1-3.55,1.73,3.31,3.31,0,0,1-3.55-3.34c0-2.8,2.49-4.34,7-4.32v-.24a2.39,2.39,0,0,0-2.64-2.68,5.74,5.74,0,0,0-3,.86l-.48-1.39a7.14,7.14,0,0,1,3.81-1c3.56,0,4.42,2.42,4.42,4.75V503a16.91,16.91,0,0,0,.19,2.79Zm-.31-5.93c-2.3-.05-4.92.36-4.92,2.61a1.87,1.87,0,0,0,2,2,2.9,2.9,0,0,0,2.81-1.94,2.32,2.32,0,0,0,.12-.68Z" transform="translate(-32.58 -28.5)"/>
      <path class="cls-1" d="M273.64,505.38a7.92,7.92,0,0,1-3.34.67c-3.5,0-5.78-2.38-5.78-5.93a5.9,5.9,0,0,1,6.24-6.17,7,7,0,0,1,2.93.6l-.48,1.63a4.91,4.91,0,0,0-2.45-.55c-2.67,0-4.11,2-4.11,4.39,0,2.69,1.73,4.35,4,4.35a6,6,0,0,0,2.59-.58Z" transform="translate(-32.58 -28.5)"/>
      <path class="cls-1" d="M278.2,499.52h.05c.28-.41.69-.91,1-1.32l3.41-4h2.54L280.74,499l5.11,6.84h-2.56l-4-5.57-1.08,1.2v4.37h-2.09v-17h2.09Z" transform="translate(-32.58 -28.5)"/>
      <path class="cls-1" d="M288.54,500.38a3.72,3.72,0,0,0,4,4,7.56,7.56,0,0,0,3.22-.6l.36,1.52a9.46,9.46,0,0,1-3.86.72c-3.58,0-5.72-2.36-5.72-5.86s2.07-6.26,5.45-6.26c3.8,0,4.8,3.33,4.8,5.47a6.87,6.87,0,0,1-.07,1Zm6.19-1.51c0-1.34-.55-3.43-2.92-3.43-2.14,0-3.08,2-3.25,3.43Z" transform="translate(-32.58 -28.5)"/>
      <path class="cls-1" d="M299.39,497.81c0-1.36,0-2.54-.1-3.62h1.85l.07,2.28h.1a3.48,3.48,0,0,1,3.22-2.54,2.25,2.25,0,0,1,.6.07v2a3.14,3.14,0,0,0-.72-.07,3,3,0,0,0-2.84,2.71,7,7,0,0,0-.09,1v6.2h-2.09Z" transform="translate(-32.58 -28.5)"/>
      <path class="cls-1" d="M307,503.65a5.61,5.61,0,0,0,2.78.84c1.54,0,2.26-.77,2.26-1.73s-.6-1.56-2.16-2.14c-2.09-.74-3.07-1.89-3.07-3.29,0-1.87,1.51-3.4,4-3.4a5.73,5.73,0,0,1,2.85.72l-.53,1.53a4.46,4.46,0,0,0-2.37-.67c-1.25,0-2,.72-2,1.58s.7,1.4,2.21,2c2,.77,3,1.78,3,3.51,0,2-1.58,3.48-4.34,3.48a6.64,6.64,0,0,1-3.27-.8Z" transform="translate(-32.58 -28.5)"/>
      <path class="cls-1" d="M316.74,498c0-1.49-.05-2.69-.1-3.79h1.9l.1,2h.05a4.56,4.56,0,0,1,4.12-2.25c2.81,0,4.92,2.37,4.92,5.9,0,4.18-2.54,6.24-5.28,6.24a4.06,4.06,0,0,1-3.57-1.82h-.05v6.31h-2.09Zm2.09,3.1a4.51,4.51,0,0,0,.1.86,3.24,3.24,0,0,0,3.16,2.47c2.24,0,3.53-1.82,3.53-4.48,0-2.33-1.22-4.32-3.45-4.32a3.38,3.38,0,0,0-3.2,2.61,3.59,3.59,0,0,0-.14.87Z" transform="translate(-32.58 -28.5)"/>
      <path class="cls-1" d="M336.83,505.81l-.17-1.47h-.07a4.34,4.34,0,0,1-3.55,1.73,3.31,3.31,0,0,1-3.56-3.34c0-2.8,2.5-4.34,7-4.32v-.24a2.39,2.39,0,0,0-2.64-2.68,5.8,5.8,0,0,0-3,.86l-.48-1.39a7.18,7.18,0,0,1,3.82-1c3.55,0,4.42,2.42,4.42,4.75V503a15.89,15.89,0,0,0,.19,2.79Zm-.31-5.93c-2.31-.05-4.92.36-4.92,2.61a1.87,1.87,0,0,0,2,2,2.9,2.9,0,0,0,2.81-1.94,2.32,2.32,0,0,0,.12-.68Z" transform="translate(-32.58 -28.5)"/>
      <path class="cls-1" d="M350.25,505.38a8,8,0,0,1-3.34.67c-3.51,0-5.79-2.38-5.79-5.93a5.9,5.9,0,0,1,6.24-6.17,7,7,0,0,1,2.93.6l-.48,1.63a4.85,4.85,0,0,0-2.45-.55c-2.66,0-4.1,2-4.1,4.39,0,2.69,1.73,4.35,4,4.35a6.09,6.09,0,0,0,2.6-.58Z" transform="translate(-32.58 -28.5)"/>
      <path class="cls-1" d="M353.75,500.38a3.72,3.72,0,0,0,4,4,7.56,7.56,0,0,0,3.22-.6l.36,1.52a9.5,9.5,0,0,1-3.86.72c-3.58,0-5.72-2.36-5.72-5.86s2.07-6.26,5.45-6.26c3.79,0,4.8,3.33,4.8,5.47a8.79,8.79,0,0,1-.07,1Zm6.19-1.51c0-1.34-.55-3.43-2.93-3.43-2.13,0-3.07,2-3.24,3.43Z" transform="translate(-32.58 -28.5)"/>
      <path class="cls-1" d="M363.8,504.56a1.42,1.42,0,0,1,1.44-1.51,1.51,1.51,0,0,1,0,3A1.42,1.42,0,0,1,363.8,504.56Z" transform="translate(-32.58 -28.5)"/>
      <path class="cls-1" d="M366.44,509.17a3.5,3.5,0,0,0,2.31-.89c.57-.67.79-1.59.79-4.37v-9.72h2.11v10.54c0,2.25-.36,3.72-1.39,4.77a5.34,5.34,0,0,1-3.6,1.32Zm5.45-18.24a1.24,1.24,0,0,1-1.32,1.29,1.26,1.26,0,0,1-1.29-1.29,1.29,1.29,0,0,1,1.34-1.32A1.24,1.24,0,0,1,371.89,490.93Z" transform="translate(-32.58 -28.5)"/>
      <path class="cls-1" d="M375.11,498c0-1.49-.05-2.69-.1-3.79h1.9l.09,2h.05a4.58,4.58,0,0,1,4.13-2.25c2.81,0,4.92,2.37,4.92,5.9,0,4.18-2.54,6.24-5.28,6.24a4.08,4.08,0,0,1-3.58-1.82h0v6.31h-2.09Zm2.09,3.1a4.54,4.54,0,0,0,.09.86,3.26,3.26,0,0,0,3.17,2.47c2.23,0,3.53-1.82,3.53-4.48,0-2.33-1.22-4.32-3.46-4.32a3.37,3.37,0,0,0-3.19,2.61,3.59,3.59,0,0,0-.14.87Z" transform="translate(-32.58 -28.5)"/>
    </g>
    <g>
      <g>
        <path class="cls-1" d="M191.24,133v1.49q0,6.53-2.39,9.45c-1.6,1.95-4.17,2.92-7.73,2.92q-5.91,0-8.26-3.16t-2.36-11.18V124q0-8,2.36-11.15t8.32-3.16q5,0,7.17,2.47t2.17,8.14v1.8h-4.13v-.66q0-3.9-1.27-5.53t-4.38-1.62q-3.44,0-4.64,1.76c-.8,1.18-1.19,3.83-1.19,8v8.57q0,6.17,1.24,8t4.78,1.8c2.32,0,3.91-.53,4.77-1.61s1.28-3.17,1.28-6.3V133Z" transform="translate(-32.58 -28.5)"/>
        <path class="cls-1" d="M197.08,146.23V94h4.13v30.42h2l8.29-14.07H216l-9.53,16.14,11.42,19.74H213l-9.81-17.08h-2v17.08Z" transform="translate(-32.58 -28.5)"/>
        <path class="cls-1" d="M224.19,129.15v3.42c0,4.18.41,6.83,1.24,8s2.49,1.71,5,1.71,4.38-.42,5.32-1.28,1.42-2.43,1.42-4.73V135.1H241v1.21c0,3.73-.83,6.42-2.47,8.07s-4.34,2.47-8.09,2.47q-5.86,0-8.24-3.18t-2.38-11.16V124q0-8,2.36-11.15c1.57-2.11,4.35-3.16,8.32-3.16s6.68,1,8.23,3.15S241,118.66,241,124v5.15Zm0-4.46h12.7v-2.24q0-5-1.35-6.74t-5-1.77c-2.42,0-4.08.6-5,1.78s-1.35,3.43-1.35,6.73Z" transform="translate(-32.58 -28.5)"/>
        <path class="cls-1" d="M251.33,146.23H247.2V110.35H251V115a9,9,0,0,1,3-4,7.65,7.65,0,0,1,4.54-1.3c2.36,0,4.07.77,5.11,2.3s1.57,4,1.57,7.48v2.77h-3.82v-1.7q0-3.77-.93-5.32a3.36,3.36,0,0,0-3.14-1.55,5.06,5.06,0,0,0-4.64,2.19q-1.38,2.19-1.38,7.73Z" transform="translate(-32.58 -28.5)"/>
        <path class="cls-1" d="M288.28,133.85v4.81q0,4.14-2.09,6.17t-6.41,2h-3.64q-4.47,0-6.18-1.8c-1.14-1.2-1.7-3.4-1.7-6.6v-3.7h4.06V137c0,2.4.29,3.94.87,4.64s1.69,1,3.33,1h2.85a5,5,0,0,0,3.57-1,4.88,4.88,0,0,0,1-3.54v-3.39c0-2.53-1.88-4.13-5.62-4.8l-1.49-.28q-5.62-1.07-6.93-2.42c-.87-.9-1.3-2.38-1.3-4.46v-4.8q0-4.19,2.11-6.21t6.43-2H280q4.47,0,6.18,1.8t1.71,6.63v1.49h-4.07v-1a5.47,5.47,0,0,0-.93-3.65,4.28,4.28,0,0,0-3.26-1h-2.11a5.05,5.05,0,0,0-3.56,1,4.76,4.76,0,0,0-1,3.47v3.46q0,2.83,6.36,3.87l2.76.45a7.52,7.52,0,0,1,4.75,2.35A8.28,8.28,0,0,1,288.28,133.85Z" transform="translate(-32.58 -28.5)"/>
        <path class="cls-1" d="M315.42,131.57q0,8.27-2.05,11.77c-1.36,2.34-3.6,3.51-6.7,3.51a8.74,8.74,0,0,1-4.46-1.12,9,9,0,0,1-3.24-3.41v17.22h-4.13V110.35h3.88v4.25a10.64,10.64,0,0,1,3.49-3.73,8.63,8.63,0,0,1,4.58-1.18c3.11,0,5.32,1.23,6.65,3.68s2,6.68,2,12.67ZM299,125.42v5.74c0,4.33.48,7.3,1.46,8.9s2.67,2.4,5.09,2.4A4.4,4.4,0,0,0,309.8,140q1.24-2.41,1.25-8.68v-6.15c0-4.19-.42-7.1-1.25-8.71a4.4,4.4,0,0,0-4.28-2.42q-3.63,0-5.09,2.4C299.45,118.08,299,121.06,299,125.42Z" transform="translate(-32.58 -28.5)"/>
        <path class="cls-1" d="M337,146.23V143a6.73,6.73,0,0,1-2.89,3,10.88,10.88,0,0,1-4.88.92c-2.69,0-4.69-.75-6-2.25s-2-3.79-2-6.88V133q0-4.53,2.18-6.86t6.36-2.34a11.15,11.15,0,0,1,4.37.76A6.9,6.9,0,0,1,337,126.9v-5.6q0-4.59-1.11-6c-.73-.94-2.21-1.42-4.42-1.42a5.65,5.65,0,0,0-3.88,1.06,4.5,4.5,0,0,0-1.15,3.47v1.7H322.2v-1.63q0-4.64,2.26-6.77c1.51-1.43,3.92-2.15,7.21-2.15,3.56,0,6,.76,7.37,2.27s2,4.27,2,8.28v26.13Zm-6.18-3.53q3.45,0,4.87-1.71c1-1.14,1.43-3.13,1.43-6s-.4-4.55-1.19-5.5-2.33-1.42-4.58-1.42-3.84.52-4.63,1.54-1.18,3.09-1.18,6.17q0,3.74,1.23,5.31A4.8,4.8,0,0,0,330.83,142.7Z" transform="translate(-32.58 -28.5)"/>
        <path class="cls-1" d="M368.5,133v1.49q0,6.53-2.4,9.45t-7.73,2.92q-5.89,0-8.26-3.16t-2.36-11.18V124q0-8,2.36-11.15c1.58-2.11,4.35-3.16,8.33-3.16q5,0,7.17,2.47t2.17,8.14v1.8h-4.13v-.66q0-3.9-1.27-5.53T358,114.29q-3.45,0-4.64,1.76t-1.2,8v8.57q0,6.17,1.25,8c.82,1.2,2.42,1.8,4.78,1.8s3.9-.53,4.76-1.61,1.29-3.17,1.29-6.3V133Z" transform="translate(-32.58 -28.5)"/>
        <path class="cls-1" d="M378,129.15v3.42c0,4.18.41,6.83,1.24,8s2.49,1.71,5,1.71,4.38-.42,5.33-1.28,1.41-2.43,1.41-4.73V135.1h3.82v1.21q0,5.59-2.47,8.07c-1.65,1.65-4.34,2.47-8.09,2.47q-5.87,0-8.24-3.18t-2.38-11.16V124q0-8,2.36-11.15c1.57-2.11,4.35-3.16,8.32-3.16s6.68,1,8.23,3.15,2.33,5.82,2.33,11.16v5.15Zm0-4.46h12.7v-2.24q0-5-1.35-6.74t-5-1.77c-2.43,0-4.09.6-5,1.78s-1.35,3.43-1.35,6.73Z" transform="translate(-32.58 -28.5)"/>
      </g>
      <ellipse class="cls-1" cx="318.07" cy="81.69" rx="9.71" ry="6.96"/>
      <g>
        <path id="Antenna" class="cls-1" d="M155.27,54.5l.7,22.9s0,1.21-1.06,1.21h-.4c-1.1,0-1.07-1.21-1.07-1.21l.7-22.9a.59.59,0,0,1,.61-.49A.56.56,0,0,1,155.27,54.5Z" transform="translate(-32.58 -28.5)"/>
        <path id="Top" class="cls-1" d="M152.5,79.6,150,103.17s-.33,2,.17,2.58c0,0,.44,1,4.39,1.27h.24c3.95-.28,4.39-1.27,4.39-1.27.49-.6.16-2.58.16-2.58L156.91,79.6a2.56,2.56,0,0,1-2.16,1.09A2.61,2.61,0,0,1,152.5,79.6Z" transform="translate(-32.58 -28.5)"/>
        <path id="Base" class="cls-1" d="M165.66,139.49c-5.24-13.18-5.09-23.53-5.09-23.53a45.23,45.23,0,0,0-5.86-.6,45.18,45.18,0,0,0-5.87.6s.15,10.35-5.08,23.53c0,0-5.82,14.63-7.06,15.62l6.11,0s.66-11.78,11.71-11.85h.38c11,.07,11.71,11.85,11.71,11.85l6.11,0c-1.25-1-7.06-15.62-7.06-15.62m-10.95,1.38a5.82,5.82,0,1,1,5.81-5.81,5.81,5.81,0,0,1-5.81,5.81" transform="translate(-32.58 -28.5)"/>
        <path id="Observation_Deck" data-name="Observation Deck" class="cls-1" d="M145.09,106.85a31.59,31.59,0,0,0,19.24,0c-.42,2.59-.83,5.17-1.25,7.76a27.23,27.23,0,0,0-16.75,0C145.91,112,145.5,109.44,145.09,106.85Z" transform="translate(-32.58 -28.5)"/>
      </g>
      <path class="cls-1" d="M132.32,145.7V122.92c0-3.6-.4-6.09-1.18-7.49a4.27,4.27,0,0,0-4-2.09,5.42,5.42,0,0,0-5.14,2.73c-1,1.82-1.54,5-1.54,9.51V145.7h-4.13V93.47h4.13v19.94a8.56,8.56,0,0,1,3.14-3.23,9,9,0,0,1,4.44-1q4.5,0,6.47,2.89t2,9.59V145.7Z" transform="translate(-32.58 -28.5)"/>
      <g>
        <path class="cls-1" d="M264.18,74.44H261V66.52h3.16V57h10.5v9.56h5.92v7.92h-5.92V91.26a3.4,3.4,0,0,0,3.95,4c.35,0,.61,0,.8,0a4,4,0,0,0,.51,0l0,7.74c-1.08.16-2.09.29-3,.38s-1.78.14-2.56.14q-5.91,0-8.07-2.18t-2.15-8.9Z" transform="translate(-32.58 -28.5)"/>
        <path class="cls-1" d="M281.81,80.15q0-8.33,2.82-11.29t10.84-3q8,0,10.82,3t2.84,11.29V89.1q0,8.25-2.83,11.2t-10.83,2.94q-8,0-10.84-2.93T281.81,89.1Zm10.7-2.62V91.71a4.87,4.87,0,0,0,.58,2.86,3,3,0,0,0,2.38.72,2.88,2.88,0,0,0,2.3-.72,4.86,4.86,0,0,0,.59-2.86V77.53a5.06,5.06,0,0,0-.57-2.89,2.88,2.88,0,0,0-2.32-.72,3,3,0,0,0-2.36.74A4.84,4.84,0,0,0,292.51,77.53Z" transform="translate(-32.58 -28.5)"/>
        <path class="cls-1" d="M312.23,102.62v-52h10.15V81l5.44-14.52h9.73L331.77,82l7.68,20.65H328.64l-6.26-19v19Z" transform="translate(-32.58 -28.5)"/>
        <path class="cls-1" d="M343.41,102.62l-4.71-36.1h10.42l3.24,30.87,3.54-30.87H366l-5,33.55q-1.44,9.68-3.94,12.73t-7.76,3.07a16.86,16.86,0,0,1-2.65-.23,28.49,28.49,0,0,1-3.13-.7v-7.33A13,13,0,0,0,345,108a8.2,8.2,0,0,0,1.2.11,4.45,4.45,0,0,0,3.49-1.35,6.67,6.67,0,0,0,1.43-4.09Z" transform="translate(-32.58 -28.5)"/>
        <path class="cls-1" d="M366.75,80.15q0-8.33,2.82-11.29t10.84-3q8,0,10.82,3t2.84,11.29V89.1q0,8.25-2.83,11.2t-10.83,2.94q-8,0-10.84-2.93T366.75,89.1Zm10.7-2.62V91.71a4.87,4.87,0,0,0,.58,2.86,3,3,0,0,0,2.38.72,2.88,2.88,0,0,0,2.3-.72,4.86,4.86,0,0,0,.59-2.86V77.53a5.06,5.06,0,0,0-.57-2.89,2.88,2.88,0,0,0-2.32-.72,3,3,0,0,0-2.36.74A4.84,4.84,0,0,0,377.45,77.53Z" transform="translate(-32.58 -28.5)"/>
      </g>
    </g>
    <g id="Numbers">
      <circle id="Center_Circle" data-name="Center Circle" class="cls-2" cx="222.57" cy="297.6" r="9.92"/>
      <text class="cls-3" transform="translate(198.57 193.63)">12</text>
      <text class="cls-3" transform="translate(91.5 253.63)">10</text>
      <text class="cls-3" transform="translate(133.5 204.63)">11</text>
      <text class="cls-3" transform="translate(82.5 313.64)">9</text>
      <text class="cls-3" transform="translate(99.5 378.63)">8</text>
      <text class="cls-3" transform="translate(147.5 428.63)">7</text>
      <text class="cls-3" transform="translate(208.5 438.63)">6</text>
      <text class="cls-3" transform="translate(339.5 311.64)">3</text>
      <text class="cls-3" transform="translate(271.5 424.64)">5</text>
      <text class="cls-3" transform="translate(321.5 380.64)">4</text>
      <text class="cls-3" transform="translate(325.5 250.64)">2</text>
      <text class="cls-3" transform="translate(275.5 207.64)">1</text>
    </g>
  </g>
  <g id="Cut">
    <g>
      <g id="Box">
        <path class="cls-2" d="M478.08,594V56a27.08,27.08,0,0,0-27-27h-391a27.08,27.08,0,0,0-27,27V594" transform="translate(-32.58 -28.5)"/>
      </g>
      <line id="Box-2" data-name="Box" class="cls-2" x1="0.5" y1="565.5" x2="445.5" y2="565.5"/>
    </g>
  </g>
</svg>
